<?xml version="1.0" encoding="UTF-8"?><svg id="Layer_1" xmlns="http://www.w3.org/2000/svg" viewBox="0 0 4500 1000"><defs><style>.cls-1,.cls-2{fill:#fff;}.cls-2,.cls-3,.cls-4{stroke:#fff;stroke-miterlimit:10;stroke-width:14.77px;}.cls-5{fill:#d61f26;}.cls-6,.cls-3{fill:#df1f28;}.cls-7{fill:#80692a;}.cls-8{fill:#243d95;}.cls-4{fill:none;}</style></defs><g><circle class="cls-8" cx="513.45" cy="500" r="400"/><g><path class="cls-8" d="M271.63,485.58c39.86,21.75,88.3,5.42,99.92,.94,1.1-11.3,3.52-22.21,7.11-32.58-9.33-1.64-30.24-6.91-45.79-22.63-20.66-20.89-25.17-39.69-32.01-68.17-1.32-5.48-2.68-11.16-4.27-17.33-9.76-37.8-17.09-76.04-17.16-76.43l3.1-.59,.59-3.1c.37,.07,37.9,7.26,75.7,17.01,6.18,1.59,11.85,2.96,17.34,4.27,28.47,6.84,47.28,11.35,68.16,32.01,16.2,16.02,21.31,37.75,22.77,46.61,10.22-3.52,20.97-5.92,32.09-7.03,3.87-9.74,21.79-59.82-.58-100.82-27.01-49.5-91.4-101.33-172.63-105.81,38.73,16.08,76.05,44.56,79.09,73.41,1.4,13.26-.85,23.06-6.66,29.13-5.29,5.52-13.32,7.86-24.56,7.16-9.61-.6-17.01-12.03-16.73-21.08,.2-6.32,4.22-13.05,14.77-13.85,1.42-4.92-.58-12.44-5.56-20.64-15.96-26.24-57.74-54.45-111.79-54.45h-.23c-59.98,.09-81.61,.05-88.76,.02,.03,7.22,.07,29.19-.02,89.63-.08,54.17,28.17,96.04,54.45,112.02,8.19,4.98,15.72,6.98,20.64,5.56,.8-10.54,7.53-14.57,13.85-14.77,.17,0,.34,0,.5,0,8.97,0,19.99,7.3,20.57,16.74,.7,11.24-1.64,19.27-7.16,24.56-6.07,5.82-15.87,8.06-29.13,6.66-28.85-3.04-57.33-40.36-73.41-79.09,4.48,81.23,56.31,145.62,105.81,172.63Z"/><path class="cls-8" d="M862.27,759.61c.08-54.17-28.17-96.04-54.45-112.02-8.19-4.98-15.72-6.98-20.64-5.56-.8,10.54-7.53,14.57-13.86,14.76-9.05,.25-20.48-7.12-21.08-16.73-.7-11.24,1.64-19.27,7.15-24.56,6.07-5.82,15.88-8.06,29.13-6.66,28.85,3.04,57.33,40.35,73.42,79.08-4.48-81.23-56.31-145.62-105.81-172.63-41.06-22.41-91.09-4.46-100.82-.58-1.11,11.12-3.51,21.86-7.03,32.09,8.86,1.47,30.59,6.57,46.61,22.77,20.66,20.89,25.17,39.7,32.01,68.17,1.32,5.48,2.68,11.15,4.27,17.33,9.76,37.8,16.94,75.33,17.01,75.7l-3.1,.59-.59,3.1c-.38-.07-38.63-7.41-76.42-17.16-6.18-1.59-11.85-2.96-17.34-4.28-28.47-6.84-47.28-11.35-68.16-32.01-15.72-15.55-20.99-36.46-22.63-45.78-10.37,3.59-21.29,6.01-32.58,7.11-4.48,11.62-20.81,60.05,.94,99.91,27.01,49.49,91.41,101.32,172.63,105.81-38.73-16.08-76.05-44.56-79.09-73.41-1.4-13.26,.84-23.06,6.66-29.13,5.29-5.52,13.33-7.86,24.56-7.16,9.61,.6,17.01,12.02,16.73,21.08-.2,6.32-4.22,13.05-14.76,13.85-1.42,4.92,.58,12.45,5.56,20.64,15.96,26.24,57.74,54.45,111.79,54.45h.23c60.44-.09,82.41-.05,89.64-.02-.03-7.15-.07-28.78,.02-88.76Z"/><path class="cls-8" d="M325.96,848.07c81.23-4.48,145.62-56.31,172.64-105.81,21.75-39.86,5.42-88.3,.94-99.91-11.3-1.1-22.21-3.52-32.59-7.11-1.64,9.33-6.92,30.24-22.63,45.79-20.88,20.66-39.69,25.17-68.16,32.01-5.49,1.32-11.16,2.68-17.34,4.27-37.8,9.75-76.04,17.09-76.43,17.16l-.59-3.1-3.1-.59c.07-.37,7.26-37.9,17.01-75.7,1.59-6.18,2.96-11.85,4.28-17.34,6.84-28.47,11.35-47.27,32.01-68.16,16.03-16.2,37.75-21.31,46.61-22.77-3.52-10.22-5.92-20.97-7.03-32.09-9.74-3.87-59.82-21.79-100.82,.58-49.5,27.01-101.33,91.4-105.81,172.63,16.08-38.73,44.56-76.05,73.42-79.08,13.26-1.4,23.06,.85,29.13,6.66,5.52,5.29,7.86,13.32,7.16,24.56-.6,9.61-12.05,17-21.08,16.73-6.32-.2-13.05-4.22-13.85-14.76-4.92-1.42-12.44,.58-20.64,5.56-26.28,15.98-54.53,57.86-54.45,112.02,.09,59.98,.05,81.61,.02,88.76,7.22-.03,29.19-.07,89.64,.02h.23c54.06,0,95.83-28.21,111.79-54.45,4.98-8.19,6.98-15.72,5.56-20.64-10.54-.8-14.57-7.53-14.76-13.85-.28-9.06,7.12-20.48,16.73-21.08,11.23-.7,19.27,1.64,24.56,7.16,5.82,6.07,8.06,15.87,6.66,29.13-3.04,28.85-40.36,57.33-79.09,73.41Z"/><path class="cls-8" d="M528.31,257.74c-22.37,41-4.45,91.08-.58,100.82,11.12,1.11,21.86,3.51,32.09,7.03,1.47-8.86,6.57-30.59,22.77-46.61,20.88-20.66,39.69-25.17,68.16-32.01,5.49-1.32,11.16-2.68,17.34-4.27,37.8-9.75,75.32-16.94,75.7-17.01l.59,3.1,3.1,.59c-.07,.38-7.4,38.63-17.16,76.43-1.59,6.17-2.96,11.85-4.27,17.33-6.84,28.47-11.36,47.28-32.01,68.17-15.54,15.72-36.46,20.99-45.78,22.63,3.59,10.37,6.01,21.29,7.11,32.58,11.61,4.48,60.05,20.81,99.91-.94,49.5-27.01,101.33-91.4,105.81-172.63-16.08,38.73-44.56,76.05-73.41,79.09-13.26,1.4-23.06-.85-29.13-6.66-5.52-5.29-7.86-13.32-7.16-24.56,.6-9.61,12.03-17.03,21.08-16.73,6.32,.2,13.05,4.22,13.85,14.76,4.92,1.42,12.44-.58,20.64-5.56,26.28-15.98,54.53-57.85,54.45-112.02-.09-60.44-.05-82.41-.02-89.63-7.15,.03-28.78,.07-88.76-.02h-.23c-54.06,0-95.83,28.21-111.79,54.45-4.98,8.19-6.98,15.72-5.56,20.64,10.54,.8,14.57,7.53,14.76,13.85,.28,9.06-7.11,20.48-16.73,21.08-11.24,.7-19.27-1.64-24.56-7.16-5.82-6.07-8.06-15.87-6.66-29.13,3.04-28.85,40.35-57.33,79.09-73.41-81.23,4.48-145.62,56.31-172.63,105.81Z"/><path class="cls-1" d="M513.15,854.4l.76,1.53c.16-.08,.32-.17,.48-.25l-.93-1.88-.3,.61Z"/><path class="cls-1" d="M162.37,146.08c-.42,0-.59,0-.6,0l-.03,2.41-2.38,.03h0s2.98-.03,2.98-.03l.03-2.4Z"/><path class="cls-1" d="M514.38,144.33c-.16-.08-.32-.17-.48-.25l-1.06,2.13,.3,.61,1.23-2.49Z"/><path class="cls-6" d="M682.1,500.52c-11.45-2.09-20.69-5.04-26.23-7.05,.11,2.31,.17,4.63,.17,6.97s-.06,4.88-.18,7.29c5.28-1.96,14.57-5.01,26.25-7.21Z"/><path class="cls-1" d="M158.49,851.51h0s2.41,.03,2.41,.03l.03,2.38s.19,0,.6,0l-.03-2.37-3.01-.03Z"/><path class="cls-1" d="M157.49,499.15c-.04,.08-.09,.16-.12,.24l1.69,.84-2.57,1.27c.04,.08,.08,.16,.12,.24l3.04-1.51-2.17-1.07Z"/><path class="cls-8" d="M719.9,361.66c1.32-5.51,2.69-11.21,4.3-17.43,7.73-29.95,13.93-60.18,16.17-71.44-11.13,2.22-40.84,8.31-70.71,16.02-6.23,1.61-11.93,2.98-17.44,4.3-27.44,6.59-45.56,10.94-65.2,30.36-15.61,15.44-20.08,37.29-21.16,44.36,5.19,2.06,10.22,4.41,15.09,7.04,2.84-10.48,13.68-36.99,52.45-51.27,34.23-12.61,60.23-18.24,72.68-20.48l.54,2.99,3.47,.61c-1.76,10.1-7.3,37.49-20.67,73.78-13.95,37.86-39.56,49.08-50.51,52.23,2.65,4.89,5.02,9.96,7.1,15.17,7.82-1.3,28.7-6.02,43.54-21.03,19.42-19.63,23.77-37.76,30.36-65.2Z"/><path class="cls-8" d="M439.87,323.47c-19.63-19.42-37.76-23.77-65.2-30.36-5.51-1.32-11.21-2.69-17.44-4.3-29.88-7.71-59.58-13.81-70.71-16.02,2.24,11.26,8.44,41.49,16.17,71.44,1.61,6.23,2.98,11.92,4.3,17.44,6.59,27.44,10.94,45.57,30.36,65.2,14.84,15.01,35.72,19.73,43.54,21.03,2.07-5.21,4.45-10.28,7.1-15.17-10.95-3.15-36.56-14.38-50.51-52.23-13.37-36.29-18.91-63.69-20.67-73.78l3.48-.61,.54-2.99c12.45,2.24,38.45,7.87,72.68,20.48,38.77,14.28,49.61,40.79,52.45,51.27,4.87-2.63,9.9-4.98,15.09-7.04-1.09-7.07-5.59-28.96-21.16-44.36Z"/><path class="cls-6" d="M513.45,357.85c2.45,0,4.88,.06,7.29,.18-1.98-5.34-5.09-14.81-7.29-26.69-2.2,11.88-5.31,21.35-7.29,26.69,2.42-.12,4.85-.18,7.3-.18Z"/><path class="cls-6" d="M344.8,500.52c11.67,2.2,20.97,5.25,26.25,7.21-.12-2.42-.18-4.85-.18-7.29s.06-4.66,.17-6.97c-5.54,2.01-14.78,4.96-26.23,7.05Z"/><path class="cls-1" d="M513.45,364.16c-75.14,0-136.27,61.13-136.27,136.27s61.13,136.27,136.27,136.27,136.27-61.13,136.27-136.27-61.13-136.27-136.27-136.27Zm0,237.85c-56.01,0-101.58-45.57-101.58-101.58s45.57-101.58,101.58-101.58,101.58,45.57,101.58,101.58-45.57,101.58-101.58,101.58Z"/><path class="cls-1" d="M513.45,405.17c-52.53,0-95.26,42.74-95.26,95.26s42.74,95.26,95.26,95.26,95.26-42.74,95.26-95.26-42.73-95.26-95.26-95.26Z"/><path class="cls-8" d="M587.02,676.53c19.63,19.42,37.76,23.77,65.19,30.36,5.51,1.32,11.21,2.69,17.45,4.3,29.95,7.73,60.18,13.93,71.44,16.17-2.22-11.13-8.31-40.84-16.02-70.71-1.61-6.23-2.98-11.92-4.3-17.43-6.59-27.44-10.94-45.57-30.36-65.2-15.4-15.57-37.28-20.07-44.36-21.16-2.06,5.18-4.41,10.22-7.04,15.09,10.48,2.84,36.99,13.68,51.27,52.45,12.61,34.25,18.24,60.24,20.48,72.68l-2.98,.54-.61,3.47c-10.1-1.76-37.51-7.31-73.78-20.67-37.86-13.95-49.08-39.56-52.23-50.51-4.89,2.65-9.96,5.02-15.17,7.1,1.3,7.82,6.03,28.7,21.03,43.54Z"/><path class="cls-6" d="M513.45,643.03c-2.33,0-4.66-.06-6.96-.17,1.98,5.47,4.88,14.54,6.96,25.78,2.09-11.24,4.98-20.32,6.96-25.78-2.31,.11-4.63,.17-6.96,.17Z"/><path class="cls-8" d="M306.12,639.2c-1.32,5.51-2.69,11.21-4.3,17.44-7.71,29.87-13.81,59.58-16.02,70.71,11.26-2.24,41.49-8.44,71.44-16.17,6.23-1.61,11.93-2.98,17.44-4.3,27.44-6.59,45.56-10.94,65.19-30.36,15-14.84,19.73-35.72,21.03-43.54-5.21-2.07-10.28-4.45-15.17-7.1-3.15,10.95-14.38,36.56-52.23,50.51-36.27,13.36-63.68,18.91-73.78,20.67l-.61-3.47-2.99-.54c2.23-12.45,7.86-38.44,20.48-72.68,14.28-38.76,40.79-49.61,51.27-52.45-2.63-4.87-4.98-9.9-7.04-15.09-7.07,1.09-28.96,5.59-44.36,21.16-19.41,19.63-23.77,37.76-30.36,65.19Z"/><path class="cls-7" d="M513.45,398.86c-56.01,0-101.58,45.57-101.58,101.58s45.57,101.58,101.58,101.58,101.58-45.57,101.58-101.58-45.57-101.58-101.58-101.58Zm0,196.84c-52.53,0-95.26-42.74-95.26-95.26s42.74-95.26,95.26-95.26,95.26,42.74,95.26,95.26-42.73,95.26-95.26,95.26Z"/><path class="cls-1" d="M811.11,642.19c-11.39-6.93-21.49-8.75-28.45-5.13l-1.7,.88v1.92c0,4.73-1.36,10.41-7.82,10.61-6.76,.24-14.24-5.35-14.58-10.81-.59-9.4,1.07-15.63,5.22-19.61,4.67-4.47,12.77-6.13,24.1-4.94,29.4,3.09,60.93,49.27,74.42,92.13l5.55,17.63,.62-18.48c1.49-44.55-10.74-88.09-35.34-125.93-5.41-8.32-11.4-16.31-17.82-23.85,10.26-7.39,44.48-33.13,55.2-54.79l-3.27-1.62,2.39-1.19c-10.72-21.66-44.94-47.4-55.2-54.79,6.42-7.53,12.41-15.53,17.81-23.84,24.61-37.84,36.83-81.38,35.34-125.93l-.62-18.48-5.55,17.64c-13.49,42.86-45.01,89.03-74.42,92.13-11.33,1.19-19.43-.47-24.1-4.94-4.15-3.98-5.81-10.21-5.23-19.61,.34-5.46,7.88-11.02,14.58-10.81,6.46,.2,7.82,5.88,7.82,10.61v1.92l1.7,.88c6.96,3.62,17.07,1.8,28.45-5.12,27.74-16.87,57.57-60.82,57.48-117.43-.12-80.18,0-92.62,0-92.74l-3.16-.03-.04-3.18c-.11,0-11.74,.12-91.89,0h-.24c-56.49,0-100.34,29.78-117.19,57.48-6.92,11.39-8.74,21.49-5.12,28.45l.88,1.7h1.92c4.73,0,10.41,1.36,10.61,7.81,.21,6.75-5.35,14.24-10.81,14.58-9.4,.58-15.63-1.07-19.61-5.23-4.47-4.67-6.14-12.77-4.94-24.1,3.09-29.4,49.27-60.93,92.13-74.42l17.64-5.55-18.48-.62c-44.54-1.49-88.09,10.73-125.93,35.34-8.32,5.41-16.31,11.4-23.85,17.82-7.39-10.26-33.13-44.48-54.79-55.2l-.47,.95-1.23,2.49-.3-.61-1.4-2.83c-21.45,10.62-46.88,44.26-54.57,54.89-7.43-6.3-15.29-12.18-23.47-17.5-37.84-24.6-81.39-36.84-125.93-35.34l-18.48,.62,17.63,5.55c42.85,13.49,89.03,45.01,92.13,74.42,1.19,11.33-.47,19.43-4.94,24.1-3.98,4.15-10.21,5.81-19.61,5.23-5.46-.34-11.02-7.84-10.81-14.58,.2-6.46,5.88-7.81,10.61-7.81h1.92l.88-1.7c3.62-6.96,1.8-17.07-5.13-28.45-16.85-27.71-60.69-57.48-117.19-57.48h-.24c-80.15,.12-91.78,0-91.89,0v.78s-.04,2.4-.04,2.4l-2.98,.03h-.18c0,.12,.12,12.49,0,92.74-.09,56.61,29.74,100.55,57.48,117.43,11.39,6.93,21.49,8.74,28.46,5.13l1.7-.88v-1.92c0-4.73,1.36-10.41,7.82-10.61,6.74-.22,14.24,5.35,14.58,10.81,.59,9.4-1.07,15.63-5.22,19.61-4.67,4.47-12.77,6.14-24.1,4.94-29.4-3.09-60.92-49.27-74.41-92.13l-5.55-17.64-.62,18.48c-1.49,44.55,10.73,88.09,35.34,125.93,5.41,8.32,11.4,16.31,17.81,23.84-10.26,7.39-44.47,33.13-55.2,54.79l.22,.11,2.17,1.07-3.04,1.51-.22,.11c10.72,21.66,44.94,47.4,55.2,54.79-6.42,7.53-12.41,15.53-17.82,23.84-24.61,37.84-36.83,81.38-35.34,125.93l.62,18.48,5.55-17.63c13.49-42.85,45.02-89.03,74.42-92.13,11.33-1.19,19.44,.47,24.1,4.94,4.15,3.98,5.81,10.21,5.22,19.61-.34,5.46-7.85,11.05-14.58,10.81-6.46-.2-7.82-5.88-7.82-10.61v-1.92l-1.7-.88c-6.96-3.62-17.07-1.8-28.45,5.13-27.74,16.87-57.57,60.82-57.48,117.43,.12,80.15,0,91.78,0,91.89h.18s3.01,.04,3.01,.04l.03,2.37v.78c.12,0,12.57-.12,92.75,0h.24c56.5,0,100.34-29.78,117.19-57.48,6.92-11.39,8.74-21.49,5.12-28.45l-.88-1.7h-1.92c-4.73,0-10.41-1.36-10.61-7.82-.21-6.75,5.34-14.24,10.81-14.58,9.39-.58,15.63,1.07,19.61,5.23,4.47,4.67,6.13,12.77,4.94,24.1-3.1,29.4-49.28,60.93-92.13,74.42l-17.64,5.55,18.48,.62c44.55,1.49,88.1-10.73,125.93-35.34,8.32-5.41,16.31-11.4,23.84-17.81,7.39,10.25,33.13,44.47,54.79,55.2l1.1-2.22,.3-.61,.93,1.88,.47,.95c21.66-10.72,47.4-44.94,54.79-55.2,7.53,6.42,15.53,12.41,23.84,17.81,37.84,24.61,81.4,36.84,125.93,35.34l18.48-.62-17.64-5.55c-42.85-13.49-89.03-45.01-92.13-74.42-1.19-11.33,.47-19.43,4.94-24.1,3.98-4.15,10.21-5.81,19.61-5.23,5.46,.34,11.02,7.84,10.81,14.58-.2,6.46-5.88,7.82-10.61,7.82h-1.92l-.88,1.7c-3.62,6.96-1.8,17.07,5.13,28.45,16.85,27.71,60.69,57.49,117.19,57.48h.24c80.17-.13,92.63,0,92.74,0l.03-3.16,3.18-.04c0-.11-.12-11.73,0-91.89,.09-56.61-29.74-100.55-57.48-117.43Zm-38.49,206.19h-.23c-54.05,0-95.83-28.21-111.79-54.45-4.98-8.19-6.98-15.72-5.56-20.64,10.54-.8,14.57-7.53,14.76-13.85,.28-9.06-7.12-20.48-16.73-21.08-11.23-.71-19.27,1.64-24.56,7.16-5.82,6.07-8.06,15.87-6.66,29.13,3.04,28.85,40.36,57.33,79.09,73.41-81.22-4.48-145.62-56.31-172.63-105.81-21.75-39.86-5.42-88.3-.94-99.91,11.3-1.1,22.21-3.52,32.58-7.11,1.64,9.33,6.92,30.24,22.63,45.78,20.88,20.66,39.69,25.17,68.16,32.01,5.49,1.32,11.16,2.68,17.34,4.28,37.8,9.75,76.04,17.09,76.42,17.16l.59-3.1,3.1-.59c-.07-.38-7.26-37.9-17.01-75.7-1.59-6.17-2.95-11.84-4.27-17.33-6.84-28.47-11.35-47.28-32.01-68.17-16.02-16.2-37.75-21.31-46.61-22.77,3.52-10.22,5.92-20.97,7.03-32.09,9.73-3.88,59.76-21.82,100.82,.58,49.5,27.01,101.33,91.4,105.81,172.63-16.08-38.73-44.56-76.05-73.42-79.08-13.26-1.4-23.06,.85-29.13,6.66-5.52,5.29-7.86,13.32-7.15,24.56,.6,9.61,12.02,16.98,21.08,16.73,6.32-.2,13.05-4.22,13.86-14.76,4.92-1.42,12.45,.58,20.64,5.56,26.28,15.98,54.53,57.86,54.45,112.02-.09,59.98-.05,81.61-.02,88.76-7.22-.03-29.2-.08-89.64,.02Zm-374.23-102.86c-5.29-5.52-13.33-7.86-24.56-7.16-9.61,.6-17.01,12.02-16.73,21.08,.2,6.32,4.22,13.05,14.76,13.85,1.42,4.92-.58,12.44-5.56,20.64-15.96,26.24-57.73,54.45-111.79,54.45h-.23c-60.44-.09-82.42-.05-89.64-.02,.03-7.15,.07-28.78-.02-88.76-.08-54.17,28.17-96.04,54.45-112.02,8.19-4.98,15.72-6.98,20.64-5.56,.8,10.54,7.53,14.57,13.85,14.76,9.03,.28,20.48-7.12,21.08-16.73,.7-11.24-1.64-19.27-7.16-24.56-6.07-5.82-15.87-8.06-29.13-6.66-28.85,3.04-57.33,40.35-73.42,79.08,4.48-81.23,56.31-145.62,105.81-172.63,41-22.37,91.08-4.45,100.82-.58,1.11,11.12,3.51,21.86,7.03,32.09-8.86,1.47-30.59,6.57-46.61,22.77-20.65,20.88-25.17,39.69-32.01,68.16-1.32,5.49-2.68,11.16-4.28,17.34-9.75,37.8-16.94,75.33-17.01,75.7l3.1,.59,.59,3.1c.38-.07,38.63-7.41,76.43-17.16,6.18-1.59,11.85-2.96,17.34-4.27,28.47-6.84,47.28-11.35,68.16-32.01,15.72-15.55,20.99-36.46,22.63-45.79,10.38,3.59,21.29,6.01,32.59,7.11,4.48,11.62,20.81,60.06-.94,99.91-27.02,49.5-91.41,101.33-172.64,105.81,38.73-16.08,76.05-44.56,79.09-73.41,1.4-13.26-.85-23.06-6.66-29.13ZM239.23,392.04c13.26,1.4,23.06-.85,29.13-6.66,5.52-5.29,7.86-13.32,7.16-24.56-.59-9.43-11.6-16.74-20.57-16.74-.17,0-.34,0-.5,0-6.32,.2-13.05,4.22-13.85,14.77-4.92,1.42-12.45-.58-20.64-5.56-26.28-15.98-54.53-57.86-54.45-112.02,.09-60.44,.05-82.42,.02-89.63,7.15,.03,28.78,.07,88.76-.02h.23c54.05,0,95.83,28.21,111.79,54.45,4.98,8.19,6.98,15.72,5.56,20.64-10.54,.8-14.57,7.53-14.77,13.85-.28,9.06,7.12,20.48,16.73,21.08,11.23,.7,19.27-1.64,24.56-7.16,5.82-6.07,8.06-15.87,6.66-29.13-3.04-28.85-40.35-57.33-79.09-73.41,81.23,4.48,145.62,56.31,172.63,105.81,22.37,41,4.45,91.08,.58,100.82-11.12,1.11-21.86,3.51-32.09,7.03-1.47-8.86-6.57-30.59-22.77-46.61-20.88-20.66-39.69-25.17-68.16-32.01-5.49-1.32-11.16-2.68-17.34-4.27-37.8-9.75-75.32-16.94-75.7-17.01l-.59,3.1-3.1,.59c.07,.38,7.4,38.63,17.16,76.43,1.59,6.17,2.95,11.85,4.27,17.33,6.84,28.47,11.35,47.28,32.01,68.17,15.55,15.72,36.46,20.99,45.79,22.63-3.59,10.37-6.01,21.29-7.11,32.58-11.61,4.48-60.05,20.82-99.92-.94-49.5-27.01-101.33-91.4-105.81-172.63,16.08,38.73,44.56,76.05,73.41,79.09Zm382.62-166.69c-1.4,13.26,.85,23.06,6.66,29.13,5.29,5.52,13.32,7.86,24.56,7.16,9.61-.6,17.01-12.03,16.73-21.08-.2-6.32-4.22-13.05-14.76-13.85-1.42-4.92,.58-12.44,5.56-20.64,15.96-26.24,57.73-54.45,111.79-54.45h.23c59.98,.09,81.61,.05,88.76,.02-.03,7.22-.07,29.19,.02,89.63,.08,54.17-28.17,96.04-54.45,112.02-8.19,4.98-15.72,6.98-20.64,5.56-.8-10.54-7.53-14.57-13.85-14.76-9.05-.3-20.48,7.12-21.08,16.73-.7,11.24,1.64,19.27,7.16,24.56,6.07,5.82,15.87,8.06,29.13,6.66,28.85-3.04,57.33-40.36,73.41-79.09-4.48,81.23-56.31,145.62-105.81,172.63-39.86,21.75-88.3,5.42-99.91,.94-1.1-11.3-3.52-22.21-7.11-32.58,9.33-1.64,30.24-6.92,45.78-22.63,20.66-20.89,25.18-39.7,32.01-68.17,1.32-5.48,2.68-11.16,4.27-17.33,9.75-37.8,17.08-76.04,17.16-76.43l-3.1-.59-.59-3.1c-.37,.07-37.9,7.26-75.7,17.01-6.18,1.59-11.85,2.96-17.34,4.27-28.47,6.84-47.28,11.35-68.16,32.01-16.2,16.02-21.3,37.75-22.77,46.61-10.22-3.52-20.97-5.92-32.09-7.03-3.87-9.74-21.79-59.82,.58-100.82,27.01-49.5,91.4-101.33,172.63-105.81-38.73,16.08-76.05,44.56-79.09,73.41Zm137.32,284.4c-8.44-4.61-17.19-7.59-25.82-9.41,8.35-1.84,16.8-4.77,24.95-9.22,18.25-9.96,36.23-24.63,51.95-42.1,9.12,6.58,42.93,31.86,53.42,52.22-11.38,20.07-43.67,44.2-52.55,50.6-15.72-17.47-33.7-32.14-51.95-42.1Zm-103.3-16.28c5.54,2.01,14.78,4.96,26.23,7.05-11.67,2.2-20.97,5.25-26.25,7.21,.12-2.42,.18-4.85,.18-7.29s-.06-4.66-.17-6.97Zm-20.09,80.16c7.5,1.69,34.36,10.3,48.59,48.94,11.18,30.35,16.79,54.07,19.4,67.46-12.3-2.38-36.86-8-68.19-19.55-37.41-13.79-46.68-39.41-48.76-47.83,20.05-12.08,36.9-28.95,48.95-49.02Zm-54.61,52.26c3.15,10.95,14.38,36.56,52.23,50.51,36.27,13.37,63.68,18.91,73.78,20.67l.61-3.47,2.98-.54c-2.23-12.45-7.86-38.44-20.48-72.68-14.28-38.76-40.79-49.61-51.27-52.45,2.63-4.87,4.98-9.9,7.04-15.09,7.07,1.09,28.96,5.59,44.36,21.16,19.42,19.63,23.77,37.76,30.36,65.2,1.32,5.51,2.69,11.21,4.3,17.43,7.71,29.87,13.81,59.58,16.02,70.71-11.26-2.24-41.49-8.44-71.44-16.17-6.23-1.61-11.93-2.98-17.45-4.3-27.44-6.59-45.56-10.94-65.19-30.36-15-14.84-19.73-35.71-21.03-43.54,5.21-2.07,10.28-4.45,15.17-7.1Zm-67.71,10.82c-75.14,0-136.27-61.13-136.27-136.27s61.13-136.27,136.27-136.27,136.27,61.13,136.27,136.27-61.13,136.27-136.27,136.27Zm0,31.92c-2.09-11.24-4.98-20.32-6.96-25.78,2.31,.11,4.63,.17,6.96,.17s4.66-.06,6.96-.17c-1.98,5.47-4.88,14.54-6.96,25.78Zm-125.57-100.7c-10.48,2.84-36.99,13.68-51.27,52.45-12.61,34.24-18.24,60.24-20.48,72.68l2.99,.54,.61,3.47c10.1-1.76,37.51-7.31,73.78-20.67,37.86-13.95,49.08-39.56,52.23-50.51,4.89,2.65,9.96,5.02,15.17,7.1-1.3,7.82-6.02,28.7-21.03,43.54-19.63,19.42-37.76,23.77-65.19,30.36-5.51,1.32-11.21,2.69-17.44,4.3-29.94,7.73-60.18,13.93-71.44,16.17,2.22-11.13,8.31-40.84,16.02-70.71,1.61-6.23,2.98-11.93,4.3-17.44,6.59-27.44,10.94-45.56,30.36-65.19,15.4-15.57,37.29-20.07,44.36-21.16,2.06,5.18,4.41,10.22,7.04,15.09Zm52.2,54.71c-2.08,8.42-11.34,34.04-48.76,47.83-31.33,11.54-55.89,17.16-68.19,19.55,2.62-13.39,8.23-37.11,19.4-67.46,14.23-38.64,41.09-47.25,48.6-48.94,12.05,20.07,28.9,36.94,48.95,49.02Zm-48.84-195.59c-8.42-2.08-34.04-11.34-47.83-48.76-11.55-31.34-17.16-55.9-19.55-68.19,13.39,2.62,37.12,8.23,67.46,19.41,38.64,14.24,47.25,41.09,48.94,48.59-20.07,12.05-36.94,28.9-49.02,48.95Zm54.71-52.2c-2.84-10.48-13.68-36.99-52.45-51.27-34.22-12.61-60.23-18.24-72.68-20.48l-.54,2.99-3.48,.61c1.76,10.1,7.3,37.49,20.67,73.78,13.95,37.86,39.56,49.08,50.51,52.23-2.65,4.89-5.02,9.96-7.1,15.17-7.82-1.3-28.7-6.02-43.54-21.03-19.42-19.63-23.77-37.76-30.36-65.2-1.32-5.51-2.69-11.21-4.3-17.44-7.73-29.94-13.93-60.18-16.17-71.44,11.13,2.22,40.83,8.31,70.71,16.02,6.23,1.61,11.93,2.98,17.44,4.3,27.44,6.59,45.57,10.94,65.2,30.36,15.57,15.4,20.07,37.29,21.16,44.36-5.18,2.06-10.22,4.41-15.09,7.04Zm67.5-43.53c2.2,11.88,5.31,21.35,7.29,26.69-2.42-.12-4.85-.18-7.29-.18s-4.88,.06-7.3,.18c1.98-5.34,5.09-14.81,7.29-26.69Zm125.46,101.38c10.95-3.15,36.56-14.38,50.51-52.23,13.37-36.29,18.91-63.68,20.67-73.78l-3.47-.61-.54-2.99c-12.45,2.24-38.45,7.87-72.68,20.48-38.77,14.28-49.61,40.79-52.45,51.27-4.87-2.63-9.9-4.98-15.09-7.04,1.08-7.06,5.56-28.92,21.16-44.36,19.63-19.42,37.76-23.77,65.2-30.36,5.51-1.32,11.21-2.69,17.44-4.3,29.87-7.71,59.58-13.81,70.71-16.02-2.24,11.26-8.44,41.49-16.17,71.44-1.61,6.23-2.98,11.92-4.3,17.43-6.59,27.44-10.94,45.57-30.36,65.2-14.84,15-35.71,19.73-43.54,21.03-2.07-5.21-4.45-10.28-7.1-15.17Zm-52.26-54.61c1.69-7.5,10.3-34.36,48.94-48.59,30.34-11.18,54.06-16.79,67.46-19.41-2.38,12.29-8,36.85-19.55,68.19-13.79,37.42-39.41,46.68-47.83,48.76-12.08-20.05-28.95-36.9-49.02-48.95Zm-63.88-123.4c-4.53,8.3-7.49,16.91-9.32,25.4-1.83-8.49-4.79-17.1-9.32-25.4-10.03-18.37-24.84-36.48-42.46-52.27,6.87-9.49,31.44-42.18,51.48-52.84,20.28,10.79,45.19,44.12,51.71,53.16-17.47,15.72-32.14,33.7-42.1,51.95Zm-151.72,253.02c-5.28-1.96-14.57-5.01-26.25-7.21,11.45-2.09,20.69-5.04,26.23-7.05-.11,2.31-.17,4.63-.17,6.97s.06,4.88,.18,7.29Zm-102.44-16.61c8.16,4.45,16.6,7.38,24.95,9.22-8.63,1.82-17.38,4.8-25.82,9.41-18.24,9.96-36.23,24.63-51.95,42.1-8.88-6.4-41.16-30.52-52.55-50.6,10.49-20.37,44.3-45.65,53.42-52.23,15.72,17.47,33.71,32.15,51.95,42.1Zm235.54,254.16c4.53-8.29,7.48-16.89,9.31-25.38,1.83,8.48,4.78,17.08,9.31,25.38,9.96,18.25,24.64,36.23,42.1,51.95-6.49,8.99-31.18,42.04-51.41,52.99-20.22-10.95-44.93-44-51.42-52.99,17.47-15.72,32.15-33.71,42.11-51.95Z"/></g><circle class="cls-6" cx="513.45" cy="500" r="123.76"/><path class="cls-1" d="M562.9,426.41l-34.24,50.82c-2.37,3.46,2.19,7.65,5.46,4.74l33.7-29.32c.91-.73,2.19-.18,2.19,1.09v91.62c0,1.27-1.64,1.82-2.37,.91l-102-122.04c-3.28-4.01-8.01-6.19-13.3-6.19h-3.64c-9.47,0-17.3,7.83-17.3,17.49v128.96c0,9.65,7.83,17.49,17.49,17.49,6.01,0,11.66-3.1,14.94-8.38l34.24-50.82c2.37-3.46-2.19-7.65-5.46-4.74l-33.7,29.14c-.91,.73-2.19,.18-2.19-1.09v-91.44c0-1.27,1.64-1.82,2.37-.91l102,122.04c3.28,4.01,8.2,6.19,13.3,6.19h3.64c9.65,0,17.49-7.83,17.49-17.49v-128.96c0-9.65-7.83-17.49-17.49-17.49-6.19,0-11.84,3.1-15.12,8.38Z"/></g><g><path class="cls-8" d="M1252.28,448l155.87-176.83h118.54l-156.53,178.14,163.08,288.83h-114.61l-119.85-208.92-46.5,53.05v155.87h-108.72V271.17h108.72v176.83Z"/><path class="cls-8" d="M1862.01,271.17h108.72v466.97h-108.72v-199.1h-152.6v199.1h-108.72V271.17h108.72v178.14h152.6v-178.14Z"/><path class="cls-8" d="M2321.77,271.17h108.72v466.97h-105.44l-155.87-277.69v277.69h-108.72V271.17h106.1l155.22,277.04V271.17Z"/><path class="cls-8" d="M2636.79,647.75h217.44v90.38h-326.16V271.17h326.16v90.38h-217.44v90.38h174.21v90.38h-174.21v105.44Z"/><path class="cls-8" d="M3169.26,271.17l145.39,466.97h-108.72l-23.58-83.83h-130.99l-23.58,83.83h-108.72l146.05-466.97h104.13Zm-13.75,292.76l-38.64-149.98-37.99,149.98h76.63Z"/><path class="cls-8" d="M3385.12,271.17h215.47c21.39,0,41.48,4.15,60.25,12.44,18.77,8.3,35.14,19.65,49.12,34.06,13.97,14.41,24.99,31.22,33.07,50.43,8.08,19.22,12.12,39.74,12.12,61.56,0,28.82-6.88,55.13-20.63,78.92-13.75,23.8-31.76,42.68-54.03,56.65l88.42,172.9h-111.34l-76.63-149.98h-87.11v149.98h-108.72V271.17Zm108.72,90.38v136.23h94.97c9.17,0,17.46-1.74,24.89-5.24,7.42-3.49,13.97-8.29,19.65-14.41,5.67-6.11,10.04-13.2,13.1-21.28,3.05-8.07,4.58-16.7,4.58-25.87s-1.64-18.67-4.91-27.18c-3.27-8.51-7.76-15.82-13.43-21.94-5.68-6.11-12.34-11.02-19.97-14.74-7.65-3.7-15.62-5.57-23.9-5.57h-94.97Z"/><path class="cls-5" d="M4058.68,645c0,12.93-2.25,25.05-6.75,36.35-4.5,11.31-10.73,21.18-18.7,29.6-7.96,8.43-17.37,15.06-28.22,19.91-10.85,4.85-22.62,7.27-35.31,7.27s-24.47-2.42-35.31-7.27c-10.85-4.85-20.25-11.48-28.22-19.91-7.96-8.42-14.19-18.29-18.69-29.6-4.5-11.31-6.75-23.42-6.75-36.35s2.25-25.04,6.75-36.35c4.5-11.31,10.73-21.23,18.69-29.77,7.97-8.54,17.36-15.23,28.22-20.08,10.85-4.85,22.62-7.27,35.31-7.27s24.46,2.42,35.31,7.27c10.85,4.85,20.25,11.54,28.22,20.08,7.96,8.54,14.19,18.47,18.7,29.77,4.5,11.31,6.75,23.43,6.75,36.35Zm-38.08,0c0-10.15-1.56-19.04-4.67-26.66-3.11-7.62-7.16-13.96-12.12-19.04-4.97-5.07-10.45-8.88-16.44-11.43-6-2.54-11.89-3.81-17.66-3.81s-12,1.33-18,3.98c-6.01,2.66-11.43,6.58-16.27,11.77-4.85,5.19-8.83,11.66-11.94,19.39-3.12,7.74-4.67,16.68-4.67,26.83s1.44,18.58,4.33,25.97c2.88,7.39,6.75,13.56,11.6,18.52,4.85,4.96,10.33,8.71,16.44,11.25,6.11,2.54,12.29,3.81,18.52,3.81s12.41-1.27,18.52-3.81c6.11-2.54,11.54-6.29,16.27-11.25,4.73-4.96,8.6-11.25,11.6-18.87,3-7.62,4.5-16.5,4.5-26.66Z"/><path class="cls-5" d="M4190.24,598.26c-7.39,.23-14.37,1.38-20.94,3.46-6.58,2.08-12.29,5.37-17.14,9.87-4.85,4.5-8.71,10.45-11.6,17.83-2.89,7.39-4.33,16.39-4.33,27.01v81.7h-38.43v-174.49h32.89l4.15,38.08c8.08-12.46,16.96-22.62,26.66-30.47,9.7-7.84,19.27-12.46,28.74-13.85v40.85Z"/><path class="cls-5" d="M4222.45,642.59c0-11.54,1.84-22.44,5.54-32.72,3.69-10.27,8.77-19.21,15.23-26.83,6.46-7.62,14.14-13.62,23.02-18,8.88-4.38,18.52-6.58,28.91-6.58,8.77,0,18.06,2.02,27.87,6.06,9.81,4.04,18.98,11.83,27.52,23.37l3.11-22.85h32.89v161.33c0,14.08-2.14,26.37-6.4,36.87-4.27,10.5-9.99,19.27-17.14,26.31-7.15,7.04-15.52,12.29-25.1,15.75-9.58,3.46-19.56,5.19-29.95,5.19-13.85,0-26.37-2.77-37.57-8.31-11.2-5.54-20.6-12.69-28.22-21.46l25.27-19.04c11.3,10.85,23.42,16.27,36.35,16.27,6.23,0,12.06-1.16,17.48-3.46,5.42-2.31,10.16-5.43,14.19-9.35,4.03-3.93,7.21-8.54,9.52-13.85,2.3-5.31,3.46-11.08,3.46-17.31v-32.54c-4.39,5.31-8.89,9.58-13.5,12.81-4.62,3.23-9.17,5.83-13.68,7.79-4.5,1.96-8.95,3.29-13.33,3.98-4.39,.69-8.43,1.04-12.12,1.04-10.62,0-20.37-2.25-29.26-6.75-8.89-4.5-16.62-10.56-23.19-18.18-6.58-7.62-11.72-16.56-15.41-26.83-3.7-10.27-5.54-21.17-5.54-32.72Zm36.7,1.73c0,8.08,1.15,15.58,3.46,22.5,2.3,6.92,5.48,12.87,9.52,17.83,4.03,4.96,8.77,8.89,14.19,11.77,5.42,2.89,11.25,4.33,17.48,4.33s12.06-1.44,17.48-4.33c5.42-2.88,10.16-6.81,14.19-11.77,4.03-4.96,7.21-10.91,9.52-17.83,2.3-6.92,3.46-14.42,3.46-22.5s-1.16-15.23-3.46-22.16c-2.31-6.93-5.49-12.86-9.52-17.83-4.04-4.96-8.77-8.88-14.19-11.77-5.42-2.88-11.25-4.33-17.48-4.33s-12.06,1.44-17.48,4.33c-5.43,2.89-10.16,6.81-14.19,11.77-4.04,4.96-7.22,10.9-9.52,17.83-2.31,6.92-3.46,14.31-3.46,22.16Z"/><path class="cls-6" d="M3812.27,700.83h37.08v37.31h-37.08v-37.31Z"/></g><g><g><polygon class="cls-3" points="874.15 543.67 874.15 456.33 798.51 412.66 722.86 456.33 722.86 543.67 798.51 587.34 874.15 543.67"/><line class="cls-2" x1="798.51" y1="500" x2="798.51" y2="587.34"/><polyline class="cls-4" points="722.86 456.33 798.51 500 874.15 456.33"/></g><g><polygon class="cls-3" points="304.03 543.67 304.03 456.33 228.39 412.66 152.75 456.33 152.75 543.67 228.39 587.34 304.03 543.67"/><line class="cls-2" x1="228.39" y1="500" x2="228.39" y2="587.34"/><polyline class="cls-4" points="152.75 456.33 228.39 500 304.03 456.33"/></g></g><g><g><polygon class="cls-3" points="592.99 258.61 592.99 171.27 517.35 127.6 441.71 171.27 441.71 258.61 517.35 302.29 592.99 258.61"/><line class="cls-2" x1="517.35" y1="214.94" x2="517.35" y2="302.29"/><polyline class="cls-4" points="441.71 171.27 517.35 214.94 592.99 171.27"/></g><g><polygon class="cls-3" points="592.95 828.73 592.95 741.39 517.31 697.71 441.66 741.39 441.66 828.73 517.31 872.4 592.95 828.73"/><line class="cls-2" x1="517.31" y1="785.06" x2="517.31" y2="872.4"/><polyline class="cls-4" points="441.66 741.39 517.31 785.06 592.95 741.39"/></g></g><line class="cls-3" x1="271.06" y1="562.71" x2="482.13" y2="718.03"/><line class="cls-3" x1="550.32" y1="280.38" x2="761.39" y2="435.69"/><line class="cls-3" x1="271.06" y1="562.71" x2="482.13" y2="718.03"/><line class="cls-3" x1="550.32" y1="280.38" x2="761.39" y2="435.69"/><line class="cls-3" x1="761.39" y1="562.71" x2="550.32" y2="718.03"/><line class="cls-3" x1="482.13" y1="280.38" x2="271.06" y2="435.69"/><path class="cls-6" d="M342.53,622.57c-11.18,30.35-16.79,54.07-19.4,67.46,12.3-2.38,36.86-8,68.19-19.55,37.42-13.79,46.68-39.41,48.76-47.83-20.05-12.08-36.9-28.95-48.95-49.02-7.5,1.69-34.36,10.3-48.6,48.94Z"/><path class="cls-6" d="M586.82,622.65c2.08,8.42,11.34,34.04,48.76,47.83,31.33,11.54,55.89,17.16,68.19,19.55-2.62-13.39-8.23-37.11-19.4-67.46-14.23-38.64-41.09-47.25-48.59-48.94-12.05,20.07-28.9,36.94-48.95,49.02Z"/><path class="cls-6" d="M683.49,378.31c11.55-31.34,17.16-55.9,19.55-68.19-13.39,2.62-37.12,8.23-67.46,19.41-38.64,14.24-47.25,41.09-48.94,48.59,20.07,12.05,36.94,28.9,49.02,48.95,8.42-2.08,34.04-11.34,47.83-48.76Z"/><path class="cls-6" d="M440.26,378.11c-1.69-7.5-10.3-34.36-48.94-48.59-30.34-11.18-54.06-16.79-67.46-19.41,2.38,12.29,8,36.85,19.55,68.19,13.79,37.42,39.41,46.68,47.83,48.76,12.08-20.05,28.95-36.9,49.02-48.95Z"/></svg>